<mxfile host="app.diagrams.net" agent="Mozilla/5.0 (Windows NT 10.0; Win64; x64) AppleWebKit/537.36 (KHTML, like Gecko) Chrome/131.0.0.0 Safari/537.36" version="24.8.9">
  <diagram name="Strona-1" id="Scgg916_XBtNbLoqnLQ0">
    <mxGraphModel dx="1674" dy="746" grid="1" gridSize="10" guides="1" tooltips="1" connect="1" arrows="1" fold="1" page="1" pageScale="1" pageWidth="1169" pageHeight="827" math="0" shadow="0">
      <root>
        <mxCell id="0" />
        <mxCell id="1" parent="0" />
        <mxCell id="Vpx7Sv_BWOCrT1ZjL_7J-3" value="Nauczyciel" style="shape=umlActor;html=1;verticalLabelPosition=bottom;verticalAlign=top;align=center;" parent="1" vertex="1">
          <mxGeometry x="300" y="384" width="30" height="60" as="geometry" />
        </mxCell>
        <mxCell id="Vpx7Sv_BWOCrT1ZjL_7J-10" value="" style="edgeStyle=none;html=1;endArrow=none;verticalAlign=bottom;rounded=0;" parent="1" edge="1">
          <mxGeometry width="160" relative="1" as="geometry">
            <mxPoint x="360" y="390" as="sourcePoint" />
            <mxPoint x="360" y="230" as="targetPoint" />
          </mxGeometry>
        </mxCell>
        <mxCell id="Vpx7Sv_BWOCrT1ZjL_7J-11" value="PU12. Dodanie innych użytkowników do klasy" style="ellipse;whiteSpace=wrap;html=1;" parent="1" vertex="1">
          <mxGeometry x="550" y="630" width="140" height="70" as="geometry" />
        </mxCell>
        <mxCell id="Vpx7Sv_BWOCrT1ZjL_7J-13" value="PU10. Dostęp do listy klas, do których należy użytkownik&amp;nbsp;" style="ellipse;whiteSpace=wrap;html=1;" parent="1" vertex="1">
          <mxGeometry x="130" y="590" width="180" height="100" as="geometry" />
        </mxCell>
        <mxCell id="Vpx7Sv_BWOCrT1ZjL_7J-18" value="" style="edgeStyle=none;html=1;endArrow=none;verticalAlign=bottom;rounded=0;" parent="1" edge="1">
          <mxGeometry width="160" relative="1" as="geometry">
            <mxPoint x="370" y="410" as="sourcePoint" />
            <mxPoint x="430" y="330" as="targetPoint" />
          </mxGeometry>
        </mxCell>
        <mxCell id="Vpx7Sv_BWOCrT1ZjL_7J-19" value="PU11. Utworzenie klasy" style="ellipse;whiteSpace=wrap;html=1;" parent="1" vertex="1">
          <mxGeometry x="300" y="150" width="140" height="70" as="geometry" />
        </mxCell>
        <mxCell id="Vpx7Sv_BWOCrT1ZjL_7J-20" value="PU15&lt;span style=&quot;background-color: initial;&quot;&gt;. Dołączenie do klasy z wykorzystaniem kodu&amp;nbsp;&lt;/span&gt;" style="ellipse;whiteSpace=wrap;html=1;" parent="1" vertex="1">
          <mxGeometry x="150" y="220" width="140" height="70" as="geometry" />
        </mxCell>
        <mxCell id="7erooQuaVug4p2jluh0y-1" value="Uczeń" style="shape=umlActor;html=1;verticalLabelPosition=bottom;verticalAlign=top;align=center;" parent="1" vertex="1">
          <mxGeometry x="110" y="384" width="30" height="60" as="geometry" />
        </mxCell>
        <mxCell id="7erooQuaVug4p2jluh0y-4" value="" style="edgeStyle=none;html=1;endArrow=none;verticalAlign=bottom;rounded=0;" parent="1" edge="1">
          <mxGeometry width="160" relative="1" as="geometry">
            <mxPoint x="160" y="590" as="sourcePoint" />
            <mxPoint x="130" y="480" as="targetPoint" />
          </mxGeometry>
        </mxCell>
        <mxCell id="7erooQuaVug4p2jluh0y-6" value="" style="edgeStyle=none;html=1;endArrow=none;verticalAlign=bottom;rounded=0;" parent="1" edge="1">
          <mxGeometry width="160" relative="1" as="geometry">
            <mxPoint x="360" y="440" as="sourcePoint" />
            <mxPoint x="570" y="490" as="targetPoint" />
          </mxGeometry>
        </mxCell>
        <mxCell id="7erooQuaVug4p2jluh0y-7" value="PU16. Dostęp do kodu klasy" style="ellipse;whiteSpace=wrap;html=1;" parent="1" vertex="1">
          <mxGeometry x="420" y="250" width="140" height="70" as="geometry" />
        </mxCell>
        <mxCell id="7erooQuaVug4p2jluh0y-8" value="" style="edgeStyle=none;html=1;endArrow=none;verticalAlign=bottom;rounded=0;" parent="1" edge="1">
          <mxGeometry width="160" relative="1" as="geometry">
            <mxPoint x="320" y="480" as="sourcePoint" />
            <mxPoint x="260" y="580" as="targetPoint" />
          </mxGeometry>
        </mxCell>
        <mxCell id="7erooQuaVug4p2jluh0y-9" value="PU13.Usuwanie innych użytkowników z klasy" style="ellipse;whiteSpace=wrap;html=1;" parent="1" vertex="1">
          <mxGeometry x="585" y="470" width="140" height="70" as="geometry" />
        </mxCell>
        <mxCell id="hYwZpnP9EdemAaqzcxsh-1" value="" style="edgeStyle=none;html=1;endArrow=none;verticalAlign=bottom;rounded=0;" parent="1" edge="1">
          <mxGeometry width="160" relative="1" as="geometry">
            <mxPoint x="540" y="630" as="sourcePoint" />
            <mxPoint x="360" y="480" as="targetPoint" />
          </mxGeometry>
        </mxCell>
        <mxCell id="hYwZpnP9EdemAaqzcxsh-3" value="" style="edgeStyle=none;html=1;endArrow=none;verticalAlign=bottom;rounded=0;" parent="1" edge="1">
          <mxGeometry width="160" relative="1" as="geometry">
            <mxPoint x="170" y="300" as="sourcePoint" />
            <mxPoint x="130" y="370" as="targetPoint" />
          </mxGeometry>
        </mxCell>
        <mxCell id="hYwZpnP9EdemAaqzcxsh-4" value="" style="edgeStyle=none;html=1;endArrow=none;verticalAlign=bottom;rounded=0;" parent="1" edge="1">
          <mxGeometry width="160" relative="1" as="geometry">
            <mxPoint x="240" y="300" as="sourcePoint" />
            <mxPoint x="310" y="370" as="targetPoint" />
          </mxGeometry>
        </mxCell>
        <mxCell id="hYwZpnP9EdemAaqzcxsh-7" value="PU14. Dostęp do listy użytkowników należących do klasy" style="ellipse;whiteSpace=wrap;html=1;" parent="1" vertex="1">
          <mxGeometry x="810" y="460" width="180" height="90" as="geometry" />
        </mxCell>
        <mxCell id="s1k31zdcaAREbEvsXrzP-1" value="&amp;lt;&amp;lt;include&amp;gt;&amp;gt;" style="html=1;verticalAlign=bottom;labelBackgroundColor=none;endArrow=open;endFill=0;dashed=1;rounded=0;" edge="1" parent="1">
          <mxGeometry width="160" relative="1" as="geometry">
            <mxPoint x="740" y="510" as="sourcePoint" />
            <mxPoint x="800" y="510" as="targetPoint" />
          </mxGeometry>
        </mxCell>
      </root>
    </mxGraphModel>
  </diagram>
</mxfile>
